# xmcd
#
# Track frame offsets: 
#        150
#        16135
#        35370
#        54220
#        74731
#        97283
#        111361
#        132551
#        152027
#        178570
#        200300
#        219527
#        239047
#        262218
#        282291
#        300070
#
# Disc length: 4493 seconds
#
# Revision: 0
# Processed by: cddbd v1.5.2PL0 Copyright (c) Steve Scherf et al.
# Submitted via: ExactAudioCopyFreeDBPlugin 1.0
#
DISCID=ed118b10
DTITLE=Mannish Boys - Wrapped Up And Ready
DYEAR=2014
DGENRE=Blues
TTITLE0=I Ain't Sayin'
TTITLE1=Everything's Alright
TTITLE2=Struggle In My Hometown
TTITLE3=Wrapped Up and Ready
TTITLE4=It Was Fun
TTITLE5=I Can Always Dream
TTITLE6=I Idolize You
TTITLE7=You Better Watch Yourself
TTITLE8=Something For Nothing
TTITLE9=Can't Make a Livin'
TTITLE10=The Blues Has Made Me Whole
TTITLE11=I Have Love
TTITLE12=Troubles
TTITLE13=She Belongs To Me
TTITLE14=Don't Say You're Sorry
TTITLE15=Blues For Michael Bloomfield
EXTD=
EXTT0=
EXTT1=
EXTT2=
EXTT3=
EXTT4=
EXTT5=
EXTT6=
EXTT7=
EXTT8=
EXTT9=
EXTT10=
EXTT11=
EXTT12=
EXTT13=
EXTT14=
EXTT15=
PLAYORDER=
